<svg id="图层_1" data-name="图层 1" xmlns="http://www.w3.org/2000/svg" viewBox="0 0 1539.62 393.22"><defs><style>.cls-1{fill:#fff;}</style></defs><path class="cls-1" d="M84.4,118.18c-18.73,1.54-38.77,17.66-44.66,35.92L1.57,272.49c-2.64,8.19-1.93,15.42,2,20.36,3.78,4.77,10.34,7,18.43,6.36l95.52-7.84L64.9,213.7a5,5,0,0,1,3.62-7.81l114.42-12.45L218,107.22Z"/><path class="cls-1" d="M192.12,197.6,244.49,276l60.35-120.64c8.09-16.18,3.84-40.8-9.47-54.89L208.81,8.9c-6.25-6.62-13.39-9.7-20.1-8.72-6,.89-11.17,5.11-14.57,11.9l-46.27,92.51,97.45-8a5,5,0,0,1,4.46,2,5,5,0,0,1,.61,4.86Z"/><path class="cls-1" d="M290.59,205.38l-41,81.92a5,5,0,0,1-4.18,2.77,5,5,0,0,1-4.49-2.22L184,202.58,78.41,214.85,152.33,324c10.14,15,33.56,23.16,52.21,18.28L326,310.49c8.75-2.29,14.89-7.07,17.29-13.46,2.16-5.74,1-12.38-3.28-18.7Z"/><path class="cls-1" d="M176.86,393.05c6-.89,11.17-5.12,14.57-11.9l14.42-28.85c-22.57,5.32-49.51-4.48-61.83-22.66l-19.49-28.77-43.29,3.55,75.52,79.91C163,390.94,170.14,394,176.86,393.05Z"/><path class="cls-1" d="M8.27,97.44c-2.16,5.74-1,12.39,3.28,18.7L32,146.3c8.73-20.05,30.45-36.39,51.6-38.13l32.62-2.68,26-52L25.56,84C16.81,86.28,10.67,91.05,8.27,97.44Z"/><path class="cls-1" d="M362.68,122.86c2.64-8.19,1.94-15.42-2-20.36-3.78-4.77-10.33-7-18.42-6.36h0L307.16,99c12.58,17.43,15.67,42.84,6.66,60.84L296,195.47l29.31,43.27Z"/><path class="cls-1" d="M669.41,326.78H606.73l-68.2-109.69L515.2,233.83v92.95H460V66.44h55.2V185.57q5.52-7.65,10.86-15.31t10.87-15.32l70.51-88.5H668.7L577.88,181.65Z"/><path class="cls-1" d="M1043.87,66.44,977.63,326.78H914.77L879.51,190q-1.07-3.92-2.85-11.93t-3.73-17.54q-2-9.53-3.48-18t-2-13.45q-.54,5-2,13.36T862,160.29q-1.86,9.44-3.65,17.63t-2.85,12.46l-35.08,136.4H757.71L691.29,66.44H745.6l33.3,142.1q1.43,6.42,3.3,15.32t3.74,18.61q1.86,9.71,3.38,18.69t2.23,15.58q.88-6.76,2.31-15.76T797,242.64q1.68-9.34,3.47-17.36c1.19-5.34,2.25-9.67,3.21-13L841.59,66.44h52.17l37.93,145.84q1.24,4.82,2.94,12.91t3.47,17.54q1.77,9.45,3.29,18.43t2.23,15.58q1.25-8.89,3.47-21.63t4.81-25.38q2.58-12.63,4.54-21.19l33.12-142.1Z"/><path class="cls-1" d="M1292.64,194.12q0,44-16.83,73.45t-48.7,44.34q-31.87,14.88-76.75,14.87h-73.72V66.44h81.73q41,0,71.05,14.52a106.08,106.08,0,0,1,46.66,42.91Q1292.64,152.28,1292.64,194.12Zm-57.34,1.42q0-28.84-8.46-47.45t-24.93-27.51q-16.47-8.91-40.69-8.91h-29.38V281.2h23.68q40.43,0,60.1-21.55T1235.3,195.54Z"/><path class="cls-1" d="M1346.59,66.44h81q52,0,78.71,14.6T1533,132.33a72,72,0,0,1-4.72,26.71,49.12,49.12,0,0,1-13.62,19.59,44.85,44.85,0,0,1-21.72,10v1.78a71.74,71.74,0,0,1,23.5,9.17q10.52,6.51,16.83,18.88t6.32,32.85q0,23.68-11.57,40.6t-33,25.91q-21.45,9-51,9h-97.41Zm55.2,103.11h32.06q24,0,33.3-7.57t9.26-22.35q0-15-11-21.46t-34.63-6.5h-29Zm0,43.8V281.2h36q24.93,0,34.73-9.62t9.79-25.82a32.88,32.88,0,0,0-4.27-16.92q-4.27-7.29-14.34-11.39t-27.69-4.1Z"/></svg>