<svg id="图层_1" data-name="图层 1" xmlns="http://www.w3.org/2000/svg" viewBox="0 0 371.33 401.04"><defs><style>.cls-1{fill:#fff;}</style></defs><path class="cls-1" d="M87.93,122.09C69.2,123.63,49.17,139.74,43.28,158L5.11,276.4c-2.64,8.19-1.94,15.41,2,20.35,3.78,4.77,10.33,7,18.43,6.37L121,295.28,68.43,217.6a5,5,0,0,1,3.62-7.81l114.42-12.44,35.07-86.23Z"/><path class="cls-1" d="M195.65,201.5,248,279.92l60.34-120.64c8.1-16.18,3.85-40.81-9.46-54.89L212.35,12.81C206.09,6.19,199,3.1,192.24,4.09c-6,.88-11.17,5.11-14.56,11.9L131.4,108.5l97.46-8a5,5,0,0,1,5.06,6.9Z"/><path class="cls-1" d="M294.12,209.28l-41,81.93A5,5,0,0,1,249,294a4.94,4.94,0,0,1-4.49-2.23l-56.95-85.26L81.94,218.76l73.93,109.15c10.13,15,33.55,23.16,52.2,18.28l121.46-31.8c8.75-2.29,14.89-7.06,17.29-13.45,2.16-5.74,1-12.39-3.28-18.7Z"/><path class="cls-1" d="M180.39,397c6-.89,11.18-5.12,14.57-11.91l14.43-28.84c-22.57,5.32-49.52-4.48-61.84-22.67l-19.48-28.76-43.3,3.55,75.52,79.91C166.54,394.85,173.67,397.93,180.39,397Z"/><path class="cls-1" d="M11.8,101.35c-2.16,5.74-1,12.38,3.28,18.7L35.51,150.2c8.72-20,30.44-36.38,51.6-38.12l32.61-2.68,26-52L29.09,87.89C20.34,90.18,14.2,95,11.8,101.35Z"/><path class="cls-1" d="M366.22,126.76c2.64-8.18,1.94-15.41-2-20.35-3.78-4.77-10.33-7-18.43-6.36h0l-35.11,2.88c12.58,17.43,15.66,42.84,6.66,60.84l-17.81,35.61,29.3,43.27Z"/></svg>